<?xml version="1.0" encoding="UTF-8" standalone="no"?>
<svg
   xmlns:dc="http://purl.org/dc/elements/1.1/"
   xmlns:cc="http://creativecommons.org/ns#"
   xmlns:rdf="http://www.w3.org/1999/02/22-rdf-syntax-ns#"
   xmlns:svg="http://www.w3.org/2000/svg"
   xmlns="http://www.w3.org/2000/svg"
   xmlns:sodipodi="http://sodipodi.sourceforge.net/DTD/sodipodi-0.dtd"
   xmlns:inkscape="http://www.inkscape.org/namespaces/inkscape"
   width="964.31464"
   height="598.4798"
   viewBox="19 -161 539.26219 327.95585"
   id="svg3438"
   version="1.1"
   inkscape:version="0.47 r22583"
   sodipodi:docname="fsm4.svg">
  <metadata
     id="metadata3746">
    <rdf:RDF>
      <cc:Work
         rdf:about="">
        <dc:format>image/svg+xml</dc:format>
        <dc:type
           rdf:resource="http://purl.org/dc/dcmitype/StillImage" />
      </cc:Work>
    </rdf:RDF>
  </metadata>
  <defs
     id="defs3744">
    <inkscape:perspective
       sodipodi:type="inkscape:persp3d"
       inkscape:vp_x="0 : 212.59842 : 1"
       inkscape:vp_y="0 : 1000 : 0"
       inkscape:vp_z="956.69293 : 212.59842 : 1"
       inkscape:persp3d-origin="478.34647 : 141.73228 : 1"
       id="perspective3748" />
    <inkscape:perspective
       id="perspective2948"
       inkscape:persp3d-origin="0.5 : 0.33333333 : 1"
       inkscape:vp_z="1 : 0.5 : 1"
       inkscape:vp_y="0 : 1000 : 0"
       inkscape:vp_x="0 : 0.5 : 1"
       sodipodi:type="inkscape:persp3d" />
    <inkscape:perspective
       id="perspective2979"
       inkscape:persp3d-origin="0.5 : 0.33333333 : 1"
       inkscape:vp_z="1 : 0.5 : 1"
       inkscape:vp_y="0 : 1000 : 0"
       inkscape:vp_x="0 : 0.5 : 1"
       sodipodi:type="inkscape:persp3d" />
    <inkscape:perspective
       id="perspective3814"
       inkscape:persp3d-origin="0.5 : 0.33333333 : 1"
       inkscape:vp_z="1 : 0.5 : 1"
       inkscape:vp_y="0 : 1000 : 0"
       inkscape:vp_x="0 : 0.5 : 1"
       sodipodi:type="inkscape:persp3d" />
    <inkscape:perspective
       id="perspective3846"
       inkscape:persp3d-origin="0.5 : 0.33333333 : 1"
       inkscape:vp_z="1 : 0.5 : 1"
       inkscape:vp_y="0 : 1000 : 0"
       inkscape:vp_x="0 : 0.5 : 1"
       sodipodi:type="inkscape:persp3d" />
    <inkscape:perspective
       id="perspective3885"
       inkscape:persp3d-origin="0.5 : 0.33333333 : 1"
       inkscape:vp_z="1 : 0.5 : 1"
       inkscape:vp_y="0 : 1000 : 0"
       inkscape:vp_x="0 : 0.5 : 1"
       sodipodi:type="inkscape:persp3d" />
    <inkscape:perspective
       id="perspective3907"
       inkscape:persp3d-origin="0.5 : 0.33333333 : 1"
       inkscape:vp_z="1 : 0.5 : 1"
       inkscape:vp_y="0 : 1000 : 0"
       inkscape:vp_x="0 : 0.5 : 1"
       sodipodi:type="inkscape:persp3d" />
    <inkscape:perspective
       id="perspective3935"
       inkscape:persp3d-origin="0.5 : 0.33333333 : 1"
       inkscape:vp_z="1 : 0.5 : 1"
       inkscape:vp_y="0 : 1000 : 0"
       inkscape:vp_x="0 : 0.5 : 1"
       sodipodi:type="inkscape:persp3d" />
    <inkscape:perspective
       id="perspective3960"
       inkscape:persp3d-origin="0.5 : 0.33333333 : 1"
       inkscape:vp_z="1 : 0.5 : 1"
       inkscape:vp_y="0 : 1000 : 0"
       inkscape:vp_x="0 : 0.5 : 1"
       sodipodi:type="inkscape:persp3d" />
    <inkscape:perspective
       id="perspective3987"
       inkscape:persp3d-origin="0.5 : 0.33333333 : 1"
       inkscape:vp_z="1 : 0.5 : 1"
       inkscape:vp_y="0 : 1000 : 0"
       inkscape:vp_x="0 : 0.5 : 1"
       sodipodi:type="inkscape:persp3d" />
    <inkscape:perspective
       id="perspective4012"
       inkscape:persp3d-origin="0.5 : 0.33333333 : 1"
       inkscape:vp_z="1 : 0.5 : 1"
       inkscape:vp_y="0 : 1000 : 0"
       inkscape:vp_x="0 : 0.5 : 1"
       sodipodi:type="inkscape:persp3d" />
    <inkscape:perspective
       id="perspective4067"
       inkscape:persp3d-origin="0.5 : 0.33333333 : 1"
       inkscape:vp_z="1 : 0.5 : 1"
       inkscape:vp_y="0 : 1000 : 0"
       inkscape:vp_x="0 : 0.5 : 1"
       sodipodi:type="inkscape:persp3d" />
  </defs>
  <sodipodi:namedview
     pagecolor="#ffffff"
     bordercolor="#666666"
     borderopacity="1"
     objecttolerance="10"
     gridtolerance="10"
     guidetolerance="10"
     inkscape:pageopacity="0"
     inkscape:pageshadow="2"
     inkscape:window-width="1600"
     inkscape:window-height="796"
     id="namedview3742"
     showgrid="false"
     inkscape:zoom="0.77619894"
     inkscape:cx="325.81961"
     inkscape:cy="231.7627"
     inkscape:window-x="0"
     inkscape:window-y="26"
     inkscape:window-maximized="1"
     inkscape:current-layer="svg3438"
     showguides="true"
     inkscape:guide-bbox="true" />
  <path
     style="fill:#0000ff;fill-opacity:1;stroke:none"
     d="m 139.31565,-135.64347 -11.66566,12.99305 0,16.23494 26.24137,-29.22799 -14.57571,0 z m 31.11697,0 -42.78263,47.632667 0,16.234936 57.35832,-63.867603 -14.57569,0 z m 31.09143,0 -73.87406,82.272297 0,16.234941 85.84605,-95.597208 0,-2.91003 -11.97199,0 z m 11.97199,21.31472 -85.84605,95.597217 0,16.234935 85.84605,-95.597226 0,-16.234926 z m 0,34.639635 -85.84605,95.571689 0,16.234934 85.84605,-95.571687 0,-16.234936 z m 0,34.614097 -85.84605,95.597225 0,16.234936 85.84605,-95.597221 0,-16.23494 z m 0,34.63964 -85.84605,95.597218 0,2.807936 12.04857,0 73.79748,-82.17022 0,-16.234934 z m 0,34.639632 -57.25624,63.765522 14.57571,0 42.68053,-47.530586 0,-16.234936 z m 0,34.639633 -26.13927,29.125889 14.57569,0 11.56358,-12.890953 0,-16.234936 z"
     id="rect5334" />
  <path
     style="fill:#ff0000;fill-opacity:1;fill-rule:evenodd;stroke:none"
     d="m 91.597731,-110.89952 12.125149,13.503577 0,16.234936 -26.700854,-29.738513 14.575705,0 z m -31.091432,0 43.216581,48.143207 0,16.234936 -57.817807,-64.378143 14.601226,0 z m -31.116953,0 74.333534,82.782846 0,16.234936 L 19,-106.22815 l 0,-4.67137 10.389346,0 z M 19,-87.823453 l 84.72288,94.3208871 0,16.2349339 L 19,-71.588532 19,-87.823453 z m 0,34.614111 84.72288,94.346409 0,8.270627 -7.147455,0 L 19,-36.974414 19,-53.209342 z m 0,34.639627 61.034172,67.977409 -14.550174,0 L 19,-2.334778 19,-18.569715 z m 0,34.639633 29.942738,33.337776 -14.575707,0 L 19,32.304854 19,16.069918 z"
     id="path55" />
  <g
     id="g3440"
     transform="translate(6.512187,-3.5176439)">
    <g
       id="g3442">
      <ellipse
         style="fill:#ffffff"
         cx="55"
         cy="-25"
         rx="35"
         ry="35"
         id="ellipse3444"
         d="M 90,-25 C 90,-5.6700338 74.329966,10 55,10 35.670034,10 20,-5.6700338 20,-25 c 0,-19.329966 15.670034,-35 35,-35 19.329966,0 35,15.670034 35,35 z"
         sodipodi:cx="55"
         sodipodi:cy="-25"
         sodipodi:rx="35"
         sodipodi:ry="35" />
      <ellipse
         style="fill:none;stroke:#000000;stroke-width:2"
         cx="55"
         cy="-25"
         rx="35"
         ry="35"
         id="ellipse3446"
         d="M 90,-25 C 90,-5.6700338 74.329966,10 55,10 35.670034,10 20,-5.6700338 20,-25 c 0,-19.329966 15.670034,-35 35,-35 19.329966,0 35,15.670034 35,35 z"
         sodipodi:cx="55"
         sodipodi:cy="-25"
         sodipodi:rx="35"
         sodipodi:ry="35" />
    </g>
    <g
       id="g3448">
      <ellipse
         style="fill:#ffffff"
         cx="55"
         cy="-25"
         rx="25"
         ry="25"
         id="ellipse3450"
         d="M 80,-25 C 80,-11.192881 68.807119,0 55,0 41.192881,0 30,-11.192881 30,-25 c 0,-13.807119 11.192881,-25 25,-25 13.807119,0 25,11.192881 25,25 z"
         sodipodi:cx="55"
         sodipodi:cy="-25"
         sodipodi:rx="25"
         sodipodi:ry="25" />
      <ellipse
         style="fill:none;stroke:#000000;stroke-width:2"
         cx="55"
         cy="-25"
         rx="25"
         ry="25"
         id="ellipse3452"
         d="M 80,-25 C 80,-11.192881 68.807119,0 55,0 41.192881,0 30,-11.192881 30,-25 c 0,-13.807119 11.192881,-25 25,-25 13.807119,0 25,11.192881 25,25 z"
         sodipodi:cx="55"
         sodipodi:cy="-25"
         sodipodi:rx="25"
         sodipodi:ry="25" />
    </g>
    <text
       style="font-size:12.80000019px;font-style:normal;font-weight:normal;text-anchor:start;fill:#000000;font-family:sanserif"
       x="55"
       y="-25"
       id="text3454">
      <tspan
         x="55"
         y="-25"
         id="tspan3456" />
    </text>
    <text
       style="font-size:12.80000019px;font-style:normal;font-weight:normal;text-anchor:start;fill:#000000;font-family:sanserif"
       x="55"
       y="-25"
       id="text3458">
      <tspan
         x="55"
         y="-25"
         id="tspan3460" />
    </text>
    <text
       style="font-size:12.80000019px;font-style:normal;font-weight:normal;text-anchor:middle;fill:#000000;font-family:sanserif"
       x="55"
       y="-20.575001"
       id="text3462">
      <tspan
         x="55"
         y="-20.575001"
         id="tspan3464">0</tspan>
    </text>
  </g>
  <g
     id="g3466"
     transform="translate(6.512187,-3.5176439)">
    <g
       id="g3468">
      <ellipse
         style="fill:#ffffff"
         cx="165"
         cy="-75"
         rx="25"
         ry="25"
         id="ellipse3470"
         d="m 190,-75 c 0,13.807119 -11.19288,25 -25,25 -13.80712,0 -25,-11.192881 -25,-25 0,-13.807119 11.19288,-25 25,-25 13.80712,0 25,11.192881 25,25 z"
         sodipodi:cx="165"
         sodipodi:cy="-75"
         sodipodi:rx="25"
         sodipodi:ry="25" />
      <ellipse
         style="fill:none;stroke:#000000;stroke-width:2"
         cx="165"
         cy="-75"
         rx="25"
         ry="25"
         id="ellipse3472"
         d="m 190,-75 c 0,13.807119 -11.19288,25 -25,25 -13.80712,0 -25,-11.192881 -25,-25 0,-13.807119 11.19288,-25 25,-25 13.80712,0 25,11.192881 25,25 z"
         sodipodi:cx="165"
         sodipodi:cy="-75"
         sodipodi:rx="25"
         sodipodi:ry="25" />
    </g>
    <text
       style="font-size:12.80000019px;font-style:normal;font-weight:normal;text-anchor:start;fill:#000000;font-family:sanserif"
       x="165"
       y="-75"
       id="text3474">
      <tspan
         x="165"
         y="-75"
         id="tspan3476" />
    </text>
    <text
       style="font-size:12.80000019px;font-style:normal;font-weight:normal;text-anchor:start;fill:#000000;font-family:sanserif"
       x="165"
       y="-75"
       id="text3478">
      <tspan
         x="165"
         y="-75"
         id="tspan3480" />
    </text>
    <text
       style="font-size:12.80000019px;font-style:normal;font-weight:normal;text-anchor:middle;fill:#000000;font-family:sanserif"
       x="165"
       y="-70.574997"
       id="text3482">
      <tspan
         x="165"
         y="-70.574997"
         id="tspan3484">1</tspan>
    </text>
  </g>
  <g
     id="g3486"
     transform="translate(6.512187,-3.5176439)">
    <g
       id="g3488">
      <ellipse
         style="fill:#ffffff"
         cx="405"
         cy="45"
         rx="25"
         ry="25"
         id="ellipse3490"
         d="m 430,45 c 0,13.807119 -11.19288,25 -25,25 -13.80712,0 -25,-11.192881 -25,-25 0,-13.807119 11.19288,-25 25,-25 13.80712,0 25,11.192881 25,25 z"
         sodipodi:cx="405"
         sodipodi:cy="45"
         sodipodi:rx="25"
         sodipodi:ry="25" />
      <ellipse
         style="fill:none;stroke:#000000;stroke-width:2"
         cx="405"
         cy="45"
         rx="25"
         ry="25"
         id="ellipse3492"
         d="m 430,45 c 0,13.807119 -11.19288,25 -25,25 -13.80712,0 -25,-11.192881 -25,-25 0,-13.807119 11.19288,-25 25,-25 13.80712,0 25,11.192881 25,25 z"
         sodipodi:cx="405"
         sodipodi:cy="45"
         sodipodi:rx="25"
         sodipodi:ry="25" />
    </g>
    <text
       style="font-size:12.80000019px;font-style:normal;font-weight:normal;text-anchor:start;fill:#000000;font-family:sanserif"
       x="405"
       y="45"
       id="text3494">
      <tspan
         x="405"
         y="45"
         id="tspan3496" />
    </text>
    <text
       style="font-size:12.80000019px;font-style:normal;font-weight:normal;text-anchor:start;fill:#000000;font-family:sanserif"
       x="405"
       y="45"
       id="text3498">
      <tspan
         x="405"
         y="45"
         id="tspan3500" />
    </text>
    <text
       style="font-size:12.80000019px;font-style:normal;font-weight:normal;text-anchor:middle;fill:#000000;font-family:sanserif"
       x="405"
       y="49.424999"
       id="text3502">
      <tspan
         x="405"
         y="49.424999"
         id="tspan3504">7</tspan>
    </text>
  </g>
  <g
     id="g3506"
     transform="translate(6.512187,-3.5176439)">
    <g
       id="g3508">
      <ellipse
         style="fill:#ffffff"
         cx="405"
         cy="-37.8074"
         rx="25"
         ry="25"
         id="ellipse3510"
         d="m 430,-37.8074 c 0,13.807119 -11.19288,25 -25,25 -13.80712,0 -25,-11.192881 -25,-25 0,-13.807118 11.19288,-25 25,-25 13.80712,0 25,11.192882 25,25 z"
         sodipodi:cx="405"
         sodipodi:cy="-37.8074"
         sodipodi:rx="25"
         sodipodi:ry="25" />
      <ellipse
         style="fill:none;stroke:#000000;stroke-width:2"
         cx="405"
         cy="-37.8074"
         rx="25"
         ry="25"
         id="ellipse3512"
         d="m 430,-37.8074 c 0,13.807119 -11.19288,25 -25,25 -13.80712,0 -25,-11.192881 -25,-25 0,-13.807118 11.19288,-25 25,-25 13.80712,0 25,11.192882 25,25 z"
         sodipodi:cx="405"
         sodipodi:cy="-37.8074"
         sodipodi:rx="25"
         sodipodi:ry="25" />
    </g>
    <text
       style="font-size:12.80000019px;font-style:normal;font-weight:normal;text-anchor:start;fill:#000000;font-family:sanserif"
       x="405"
       y="-37.8074"
       id="text3514">
      <tspan
         x="405"
         y="-37.8074"
         id="tspan3516" />
    </text>
    <text
       style="font-size:12.80000019px;font-style:normal;font-weight:normal;text-anchor:start;fill:#000000;font-family:sanserif"
       x="405"
       y="-37.8074"
       id="text3518">
      <tspan
         x="405"
         y="-37.8074"
         id="tspan3520" />
    </text>
    <text
       style="font-size:12.80000019px;font-style:normal;font-weight:normal;text-anchor:middle;fill:#000000;font-family:sanserif"
       x="405"
       y="-33.382401"
       id="text3522">
      <tspan
         x="405"
         y="-33.382401"
         id="tspan3524">6</tspan>
    </text>
  </g>
  <g
     id="g3526"
     transform="translate(6.512187,-3.5176439)">
    <g
       id="g3528">
      <ellipse
         style="fill:#ffffff"
         cx="405"
         cy="-135"
         rx="25"
         ry="25"
         id="ellipse3530"
         d="m 430,-135 c 0,13.80712 -11.19288,25 -25,25 -13.80712,0 -25,-11.19288 -25,-25 0,-13.80712 11.19288,-25 25,-25 13.80712,0 25,11.19288 25,25 z"
         sodipodi:cx="405"
         sodipodi:cy="-135"
         sodipodi:rx="25"
         sodipodi:ry="25" />
      <ellipse
         style="fill:none;stroke:#000000;stroke-width:2"
         cx="405"
         cy="-135"
         rx="25"
         ry="25"
         id="ellipse3532"
         d="m 430,-135 c 0,13.80712 -11.19288,25 -25,25 -13.80712,0 -25,-11.19288 -25,-25 0,-13.80712 11.19288,-25 25,-25 13.80712,0 25,11.19288 25,25 z"
         sodipodi:cx="405"
         sodipodi:cy="-135"
         sodipodi:rx="25"
         sodipodi:ry="25" />
    </g>
    <text
       style="font-size:12.80000019px;font-style:normal;font-weight:normal;text-anchor:start;fill:#000000;font-family:sanserif"
       x="405"
       y="-135"
       id="text3534">
      <tspan
         x="405"
         y="-135"
         id="tspan3536" />
    </text>
    <text
       style="font-size:12.80000019px;font-style:normal;font-weight:normal;text-anchor:start;fill:#000000;font-family:sanserif"
       x="405"
       y="-135"
       id="text3538">
      <tspan
         x="405"
         y="-135"
         id="tspan3540" />
    </text>
    <text
       style="font-size:12.80000019px;font-style:normal;font-weight:normal;text-anchor:middle;fill:#000000;font-family:sanserif"
       x="405"
       y="-130.575"
       id="text3542">
      <tspan
         x="405"
         y="-130.575"
         id="tspan3544">5</tspan>
    </text>
  </g>
  <g
     id="g3546"
     transform="translate(6.512187,-3.5176439)">
    <g
       id="g3548">
      <ellipse
         style="fill:#ffffff"
         cx="285"
         cy="45"
         rx="25"
         ry="25"
         id="ellipse3550"
         d="m 310,45 c 0,13.807119 -11.19288,25 -25,25 -13.80712,0 -25,-11.192881 -25,-25 0,-13.807119 11.19288,-25 25,-25 13.80712,0 25,11.192881 25,25 z"
         sodipodi:cx="285"
         sodipodi:cy="45"
         sodipodi:rx="25"
         sodipodi:ry="25" />
      <ellipse
         style="fill:none;stroke:#000000;stroke-width:2"
         cx="285"
         cy="45"
         rx="25"
         ry="25"
         id="ellipse3552"
         d="m 310,45 c 0,13.807119 -11.19288,25 -25,25 -13.80712,0 -25,-11.192881 -25,-25 0,-13.807119 11.19288,-25 25,-25 13.80712,0 25,11.192881 25,25 z"
         sodipodi:cx="285"
         sodipodi:cy="45"
         sodipodi:rx="25"
         sodipodi:ry="25" />
    </g>
    <text
       style="font-size:12.80000019px;font-style:normal;font-weight:normal;text-anchor:start;fill:#000000;font-family:sanserif"
       x="285"
       y="45"
       id="text3554">
      <tspan
         x="285"
         y="45"
         id="tspan3556" />
    </text>
    <text
       style="font-size:12.80000019px;font-style:normal;font-weight:normal;text-anchor:start;fill:#000000;font-family:sanserif"
       x="285"
       y="45"
       id="text3558">
      <tspan
         x="285"
         y="45"
         id="tspan3560" />
    </text>
    <text
       style="font-size:12.80000019px;font-style:normal;font-weight:normal;text-anchor:middle;fill:#000000;font-family:sanserif"
       x="285"
       y="49.424999"
       id="text3562">
      <tspan
         x="285"
         y="49.424999"
         id="tspan3564">4</tspan>
    </text>
  </g>
  <g
     id="g3566"
     transform="translate(6.512187,-3.5176439)">
    <g
       id="g3568">
      <ellipse
         style="fill:#ffffff"
         cx="285"
         cy="-75"
         rx="25"
         ry="25"
         id="ellipse3570"
         d="m 310,-75 c 0,13.807119 -11.19288,25 -25,25 -13.80712,0 -25,-11.192881 -25,-25 0,-13.807119 11.19288,-25 25,-25 13.80712,0 25,11.192881 25,25 z"
         sodipodi:cx="285"
         sodipodi:cy="-75"
         sodipodi:rx="25"
         sodipodi:ry="25" />
      <ellipse
         style="fill:none;stroke:#000000;stroke-width:2"
         cx="285"
         cy="-75"
         rx="25"
         ry="25"
         id="ellipse3572"
         d="m 310,-75 c 0,13.807119 -11.19288,25 -25,25 -13.80712,0 -25,-11.192881 -25,-25 0,-13.807119 11.19288,-25 25,-25 13.80712,0 25,11.192881 25,25 z"
         sodipodi:cx="285"
         sodipodi:cy="-75"
         sodipodi:rx="25"
         sodipodi:ry="25" />
    </g>
    <text
       style="font-size:12.80000019px;font-style:normal;font-weight:normal;text-anchor:start;fill:#000000;font-family:sanserif"
       x="285"
       y="-75"
       id="text3574">
      <tspan
         x="285"
         y="-75"
         id="tspan3576" />
    </text>
    <text
       style="font-size:12.80000019px;font-style:normal;font-weight:normal;text-anchor:start;fill:#000000;font-family:sanserif"
       x="285"
       y="-75"
       id="text3578">
      <tspan
         x="285"
         y="-75"
         id="tspan3580" />
    </text>
    <text
       style="font-size:12.80000019px;font-style:normal;font-weight:normal;text-anchor:middle;fill:#000000;font-family:sanserif"
       x="285"
       y="-70.574997"
       id="text3582">
      <tspan
         x="285"
         y="-70.574997"
         id="tspan3584">3</tspan>
    </text>
  </g>
  <g
     id="g3586"
     transform="translate(6.512187,-3.5176439)">
    <g
       id="g3588">
      <ellipse
         style="fill:#ffffff"
         cx="165"
         cy="45"
         rx="25"
         ry="25"
         id="ellipse3590"
         d="m 190,45 c 0,13.807119 -11.19288,25 -25,25 -13.80712,0 -25,-11.192881 -25,-25 0,-13.807119 11.19288,-25 25,-25 13.80712,0 25,11.192881 25,25 z"
         sodipodi:cx="165"
         sodipodi:cy="45"
         sodipodi:rx="25"
         sodipodi:ry="25" />
      <ellipse
         style="fill:none;stroke:#000000;stroke-width:2"
         cx="165"
         cy="45"
         rx="25"
         ry="25"
         id="ellipse3592"
         d="m 190,45 c 0,13.807119 -11.19288,25 -25,25 -13.80712,0 -25,-11.192881 -25,-25 0,-13.807119 11.19288,-25 25,-25 13.80712,0 25,11.192881 25,25 z"
         sodipodi:cx="165"
         sodipodi:cy="45"
         sodipodi:rx="25"
         sodipodi:ry="25" />
    </g>
    <text
       style="font-size:12.80000019px;font-style:normal;font-weight:normal;text-anchor:start;fill:#000000;font-family:sanserif"
       x="165"
       y="45"
       id="text3594">
      <tspan
         x="165"
         y="45"
         id="tspan3596" />
    </text>
    <text
       style="font-size:12.80000019px;font-style:normal;font-weight:normal;text-anchor:start;fill:#000000;font-family:sanserif"
       x="165"
       y="45"
       id="text3598">
      <tspan
         x="165"
         y="45"
         id="tspan3600" />
    </text>
    <text
       style="font-size:12.80000019px;font-style:normal;font-weight:normal;text-anchor:middle;fill:#000000;font-family:sanserif"
       x="165"
       y="49.424999"
       id="text3602">
      <tspan
         x="165"
         y="49.424999"
         id="tspan3604">2</tspan>
    </text>
  </g>
  <g
     id="g3606"
     transform="translate(6.512187,-3.5176439)">
    <line
       style="fill:none;stroke:#000000;stroke-width:2"
       x1="87.7771"
       y1="-39.898701"
       x2="137.269"
       y2="-62.395"
       id="line3608" />
    <polyline
       style="fill:none;stroke:#000000;stroke-width:2"
       points="132.27,-54.6305 139.305,-63.3203 128.132,-63.7341 "
       id="polyline3610" />
  </g>
  <text
     style="font-size:12.80000019px;font-style:normal;font-weight:normal;text-anchor:middle;fill:#000000;font-family:sanserif"
     x="121.07118"
     y="-58.639835"
     id="text3612">
    <tspan
       x="121.07118"
       y="-58.639835"
       id="tspan3614">a</tspan>
  </text>
  <g
     id="g3616"
     transform="translate(6.512187,-3.5176439)">
    <line
       style="fill:none;stroke:#000000;stroke-width:2"
       x1="85.3601"
       y1="-5.6799302"
       x2="139.3"
       y2="28.645201"
       id="line3618" />
    <polyline
       style="fill:none;stroke:#000000;stroke-width:2"
       points="130.065,28.6952 141.186,29.8457 135.434,20.2586 "
       id="polyline3620" />
  </g>
  <text
     style="font-size:12.80000019px;font-style:normal;font-weight:normal;text-anchor:middle;fill:#000000;font-family:sanserif"
     x="120.72819"
     y="6.1154561"
     id="text3622">
    <tspan
       x="120.72819"
       y="6.1154561"
       id="tspan3624">b</tspan>
  </text>
  <g
     id="g3626"
     transform="translate(6.512187,-3.5176439)">
    <line
       style="fill:none;stroke:#000000;stroke-width:2"
       x1="190"
       y1="45"
       x2="255.528"
       y2="45"
       id="line3628" />
    <polyline
       style="fill:none;stroke:#000000;stroke-width:2"
       points="247.764,50 257.764,45 247.764,40 "
       id="polyline3630" />
  </g>
  <text
     style="font-size:12.80000019px;font-style:normal;font-weight:normal;text-anchor:middle;fill:#000000;font-family:sanserif"
     x="231.51219"
     y="38.432365"
     id="text3632">
    <tspan
       x="231.51219"
       y="38.432365"
       id="tspan3634">b</tspan>
  </text>
  <g
     id="g3636"
     transform="translate(6.512187,-3.5176439)">
    <line
       style="fill:none;stroke:#000000;stroke-width:2"
       x1="190.89799"
       y1="-75"
       x2="254.629"
       y2="-75"
       id="line3638" />
    <polyline
       style="fill:none;stroke:#000000;stroke-width:2"
       points="246.865,-70 256.865,-75 246.865,-80 "
       id="polyline3640" />
  </g>
  <text
     style="font-size:12.80000019px;font-style:normal;font-weight:normal;text-anchor:middle;fill:#000000;font-family:sanserif"
     x="231.51219"
     y="-81.567642"
     id="text3642">
    <tspan
       x="231.51219"
       y="-81.567642"
       id="tspan3644">b</tspan>
  </text>
  <g
     id="g3646"
     transform="translate(6.512187,-3.5176439)">
    <line
       style="fill:none;stroke:#000000;stroke-width:2"
       x1="310"
       y1="45"
       x2="375.52802"
       y2="45"
       id="line3648" />
    <polyline
       style="fill:none;stroke:#000000;stroke-width:2"
       points="367.764,50 377.764,45 367.764,40 "
       id="polyline3650" />
  </g>
  <text
     style="font-size:12.80000019px;font-style:normal;font-weight:normal;text-anchor:middle;fill:#000000;font-family:sanserif"
     x="351.51218"
     y="38.432365"
     id="text3652">
    <tspan
       x="351.51218"
       y="38.432365"
       id="tspan3654">a</tspan>
  </text>
  <g
     id="g3656"
     transform="translate(6.512187,-3.5176439)">
    <line
       style="fill:none;stroke:#000000;stroke-width:2"
       x1="308.23199"
       y1="-86.616203"
       x2="377.76801"
       y2="-121.384"
       id="line3658" />
    <polyline
       style="fill:none;stroke:#000000;stroke-width:2"
       points="373.059,-113.44 379.768,-122.384 368.587,-122.384 "
       id="polyline3660" />
  </g>
  <text
     style="font-size:12.80000019px;font-style:normal;font-weight:normal;text-anchor:middle;fill:#000000;font-family:sanserif"
     x="351.51218"
     y="-111.56764"
     id="text3662">
    <tspan
       x="351.51218"
       y="-111.56764"
       id="tspan3664">a</tspan>
  </text>
  <g
     id="g3779"
     transform="translate(0,-0.95850871)">
    <line
       style="fill:none;stroke:#000000;stroke-width:1.99976385;stroke-miterlimit:4;stroke-dasharray:none"
       x1="316.12119"
       y1="-69.931732"
       x2="382.63116"
       y2="-49.317837"
       id="line3668" />
    <polyline
       transform="translate(6.512187,-2.5591352)"
       style="fill:none;stroke:#000000;stroke-width:1.99976385;stroke-miterlimit:4;stroke-dasharray:none"
       points="367.223,-44.2813 378.255,-46.0968 370.183,-53.8331 "
       id="polyline3670" />
  </g>
  <text
     style="font-size:12.80000019px;font-style:normal;font-weight:normal;text-anchor:middle;fill:#000000;font-family:sanserif"
     x="351.51218"
     y="-62.971237"
     id="text3672">
    <tspan
       x="351.51218"
       y="-62.971237"
       id="tspan3674">c</tspan>
  </text>
  <g
     id="g3676"
     transform="translate(6.512187,-3.5176439)">
    <line
       style="fill:none;stroke:#000000;stroke-width:2"
       x1="431.005"
       y1="-37.7281"
       x2="472.62201"
       y2="-37.601101"
       id="line3678" />
    <polyline
       style="fill:none;stroke:#000000;stroke-width:2"
       points="464.843,-32.6248 474.858,-37.5943 464.874,-42.6247 "
       id="polyline3680" />
  </g>
  <text
     style="font-size:12.80000019px;font-style:normal;font-weight:normal;text-anchor:middle;fill:#000000;font-family:sanserif"
     x="460.56216"
     y="-44.225437"
     id="text3682">
    <tspan
       x="460.56216"
       y="-44.225437"
       id="tspan3684">c</tspan>
  </text>
  <g
     id="g3686"
     transform="translate(6.512187,-3.5176439)">
    <line
       style="fill:none;stroke:#000000;stroke-width:2"
       x1="430.98901"
       y1="45"
       x2="474.539"
       y2="45"
       id="line3688" />
    <polyline
       style="fill:none;stroke:#000000;stroke-width:2"
       points="466.775,50 476.775,45 466.775,40 "
       id="polyline3690" />
  </g>
  <text
     style="font-size:12.80000019px;font-style:normal;font-weight:normal;text-anchor:middle;fill:#000000;font-family:sanserif"
     x="461.51218"
     y="38.432365"
     id="text3692">
    <tspan
       x="461.51218"
       y="38.432365"
       id="tspan3694">b</tspan>
  </text>
  <g
     id="g3696"
     transform="translate(6.512187,-3.5176439)">
    <g
       id="g3698">
      <polygon
         style="fill:#ffffff"
         points="480.75,-32.5 460.75,-12.5 490.75,-12.5 510.75,7.5 520.75,-12.5 550.75,-2.5 530.252,-32.5626 550.75,-52.5 520.75,-52.5 510.75,-82.5 495.752,-59.0626 460.75,-72.5 "
         id="polygon3700" />
      <polygon
         style="fill:none;stroke:#000000;stroke-width:2"
         points="480.75,-32.5 460.75,-12.5 490.75,-12.5 510.75,7.5 520.75,-12.5 550.75,-2.5 530.252,-32.5626 550.75,-52.5 520.75,-52.5 510.75,-82.5 495.752,-59.0626 460.75,-72.5 "
         id="polygon3702" />
    </g>
    <g
       id="g3704">
      <ellipse
         style="fill:#ffffff"
         cx="505.75"
         cy="-37.5"
         rx="15"
         ry="15"
         id="ellipse3706"
         d="m 520.75,-37.5 c 0,8.284271 -6.71573,15 -15,15 -8.28427,0 -15,-6.715729 -15,-15 0,-8.284271 6.71573,-15 15,-15 8.28427,0 15,6.715729 15,15 z"
         sodipodi:cx="505.75"
         sodipodi:cy="-37.5"
         sodipodi:rx="15"
         sodipodi:ry="15" />
      <ellipse
         style="fill:none;stroke:#000000;stroke-width:2"
         cx="505.75"
         cy="-37.5"
         rx="15"
         ry="15"
         id="ellipse3708"
         d="m 520.75,-37.5 c 0,8.284271 -6.71573,15 -15,15 -8.28427,0 -15,-6.715729 -15,-15 0,-8.284271 6.71573,-15 15,-15 8.28427,0 15,6.715729 15,15 z"
         sodipodi:cx="505.75"
         sodipodi:cy="-37.5"
         sodipodi:rx="15"
         sodipodi:ry="15" />
    </g>
    <text
       style="font-size:12.80000019px;font-style:normal;font-weight:normal;text-anchor:start;fill:#000000;font-family:sanserif"
       x="505.75"
       y="-37.5"
       id="text3710">
      <tspan
         x="505.75"
         y="-37.5"
         id="tspan3712" />
    </text>
    <text
       style="font-size:12.80000019px;font-style:normal;font-weight:normal;text-anchor:start;fill:#000000;font-family:sanserif"
       x="505.75"
       y="-37.5"
       id="text3714">
      <tspan
         x="505.75"
         y="-37.5"
         id="tspan3716" />
    </text>
    <text
       style="font-size:12.80000019px;font-style:normal;font-weight:normal;text-anchor:middle;fill:#000000;font-family:sanserif"
       x="505.75"
       y="-33.075001"
       id="text3718">
      <tspan
         x="505.75"
         y="-33.075001"
         id="tspan3720">8</tspan>
    </text>
  </g>
  <g
     id="g3722"
     transform="translate(6.512187,-3.5176439)">
    <g
       id="g3724">
      <ellipse
         style="fill:#ffffff"
         cx="505"
         cy="45"
         rx="25"
         ry="25"
         id="ellipse3726"
         d="m 530,45 c 0,13.807119 -11.19288,25 -25,25 -13.80712,0 -25,-11.192881 -25,-25 0,-13.807119 11.19288,-25 25,-25 13.80712,0 25,11.192881 25,25 z"
         sodipodi:cx="505"
         sodipodi:cy="45"
         sodipodi:rx="25"
         sodipodi:ry="25" />
      <ellipse
         style="fill:none;stroke:#000000;stroke-width:2"
         cx="505"
         cy="45"
         rx="25"
         ry="25"
         id="ellipse3728"
         d="m 530,45 c 0,13.807119 -11.19288,25 -25,25 -13.80712,0 -25,-11.192881 -25,-25 0,-13.807119 11.19288,-25 25,-25 13.80712,0 25,11.192881 25,25 z"
         sodipodi:cx="505"
         sodipodi:cy="45"
         sodipodi:rx="25"
         sodipodi:ry="25" />
    </g>
    <text
       style="font-size:12.80000019px;font-style:normal;font-weight:normal;text-anchor:start;fill:#000000;font-family:sanserif"
       x="505"
       y="45"
       id="text3730">
      <tspan
         x="505"
         y="45"
         id="tspan3732" />
    </text>
    <text
       style="font-size:12.80000019px;font-style:normal;font-weight:normal;text-anchor:start;fill:#000000;font-family:sanserif"
       x="505"
       y="45"
       id="text3734">
      <tspan
         x="505"
         y="45"
         id="tspan3736" />
    </text>
    <text
       style="font-size:12.80000019px;font-style:normal;font-weight:normal;text-anchor:middle;fill:#000000;font-family:sanserif"
       x="505"
       y="49.424999"
       id="text3738">
      <tspan
         x="505"
         y="49.424999"
         id="tspan3740">9</tspan>
    </text>
  </g>
  <g
     id="g4081"
     transform="translate(54.754745,0.48240559)">
    <path
       id="path55-7"
       d="m 281.23833,109.41861 0,11.76106 6.92033,7.68925 14.57462,0 -17.47557,-19.45031 -4.01938,0 z m 20.55127,0 17.47556,19.45031 3.77473,0 0,-12.00572 -6.67567,-7.44459 -14.57462,0 z"
       style="fill:#ff0000;fill-opacity:1;fill-rule:evenodd;stroke:none" />
    <rect
       y="109.60332"
       x="281.2464"
       height="19.452343"
       width="41.786514"
       id="rect2993"
       style="fill:none;stroke:#000000;stroke-width:1.99976385;stroke-miterlimit:4;stroke-opacity:1;stroke-dasharray:none" />
  </g>
  <g
     id="g3923"
     transform="translate(54.754745,-0.23803783)">
    <path
       id="rect5334-6"
       transform="matrix(0.55921809,0,0,0.55921809,19,-164.51764)"
       d="m 468.9375,544.28125 0,22.125 19.84375,-22.125 -19.84375,0 z m 49.4375,0 -31.25,34.8125 26.0625,0 30.5,-33.96875 0,-0.84375 -25.3125,0 z m 25.3125,33.75 -0.96875,1.0625 0.96875,0 0,-1.0625 z"
       style="fill:#0000ff;fill-opacity:1;stroke:none" />
    <rect
       transform="scale(-1,1)"
       y="139.86252"
       x="-323.0329"
       height="19.452343"
       width="41.786514"
       id="rect2993-3"
       style="fill:none;stroke:#000000;stroke-width:1.99976385;stroke-miterlimit:4;stroke-opacity:1;stroke-dasharray:none" />
  </g>
  <g
     id="g4045"
     transform="translate(50.281,0.48240559)"
     style="stroke-width:2.23687243;stroke-miterlimit:4;stroke-dasharray:none">
    <text
       id="text3632-9"
       y="124.10137"
       x="353.06088"
       style="font-size:12.80000019px;font-style:normal;font-weight:normal;text-anchor:middle;fill:#000000;stroke-width:2.23687243;stroke-miterlimit:4;stroke-dasharray:none;font-family:sanserif">
      <tspan
         id="tspan3634-2"
         y="124.10137"
         x="353.06088"
         style="stroke-width:2.23687243;stroke-miterlimit:4;stroke-dasharray:none">Red</tspan>
    </text>
    <text
       id="text3632-9-5"
       y="124.10137"
       x="388.54764"
       style="font-size:12.80000019px;font-style:normal;font-weight:normal;text-anchor:middle;fill:#000000;stroke-width:2.23687243;stroke-miterlimit:4;stroke-dasharray:none;font-family:sanserif">
      <tspan
         id="tspan3634-2-4"
         y="124.10137"
         x="388.54764"
         style="stroke-width:2.23687243;stroke-miterlimit:4;stroke-dasharray:none">Zone</tspan>
    </text>
  </g>
  <g
     id="g4051"
     transform="translate(54.762262,0.48240559)"
     style="stroke-width:2.23687243;stroke-miterlimit:4;stroke-dasharray:none">
    <text
       id="text3632-9-9"
       y="153.64012"
       x="350.57962"
       style="font-size:12.80000019px;font-style:normal;font-weight:normal;text-anchor:middle;fill:#000000;stroke-width:2.23687243;stroke-miterlimit:4;stroke-dasharray:none;font-family:sanserif">
      <tspan
         id="tspan3634-2-48"
         y="153.64012"
         x="350.57962"
         style="stroke-width:2.23687243;stroke-miterlimit:4;stroke-dasharray:none">Blue</tspan>
    </text>
    <text
       id="text3632-9-5-7"
       y="153.64012"
       x="389.57251"
       style="font-size:12.80000019px;font-style:normal;font-weight:normal;text-anchor:middle;fill:#000000;stroke-width:2.23687243;stroke-miterlimit:4;stroke-dasharray:none;font-family:sanserif">
      <tspan
         id="tspan3634-2-4-2"
         y="153.64012"
         x="389.57251"
         style="stroke-width:2.23687243;stroke-miterlimit:4;stroke-dasharray:none">Zone</tspan>
    </text>
  </g>
  <rect
     style="fill:none;stroke:#000000;stroke-width:1.99976385;stroke-miterlimit:4;stroke-opacity:1;stroke-dasharray:none"
     id="rect2993-8"
     width="203.88937"
     height="69.163887"
     x="315.10785"
     y="99.999329" />
</svg>
