<?xml version="1.0" encoding="UTF-8" standalone="no"?>
<svg
   xmlns:dc="http://purl.org/dc/elements/1.1/"
   xmlns:cc="http://creativecommons.org/ns#"
   xmlns:rdf="http://www.w3.org/1999/02/22-rdf-syntax-ns#"
   xmlns:svg="http://www.w3.org/2000/svg"
   xmlns="http://www.w3.org/2000/svg"
   xmlns:sodipodi="http://sodipodi.sourceforge.net/DTD/sodipodi-0.dtd"
   xmlns:inkscape="http://www.inkscape.org/namespaces/inkscape"
   width="1003.4429"
   height="633.19751"
   viewBox="39 -101 558.29654 346.98052"
   id="svg2837"
   version="1.1"
   inkscape:version="0.47 r22583"
   sodipodi:docname="fsm5.svg">
  <metadata
     id="metadata3145">
    <rdf:RDF>
      <cc:Work
         rdf:about="">
        <dc:format>image/svg+xml</dc:format>
        <dc:type
           rdf:resource="http://purl.org/dc/dcmitype/StillImage" />
        <dc:title />
      </cc:Work>
    </rdf:RDF>
  </metadata>
  <defs
     id="defs3143">
    <inkscape:perspective
       sodipodi:type="inkscape:persp3d"
       inkscape:vp_x="0 : 212.59842 : 1"
       inkscape:vp_y="0 : 1000 : 0"
       inkscape:vp_z="992.12598 : 212.59842 : 1"
       inkscape:persp3d-origin="496.06299 : 141.73228 : 1"
       id="perspective3147" />
    <inkscape:perspective
       id="perspective2973"
       inkscape:persp3d-origin="0.5 : 0.33333333 : 1"
       inkscape:vp_z="1 : 0.5 : 1"
       inkscape:vp_y="0 : 1000 : 0"
       inkscape:vp_x="0 : 0.5 : 1"
       sodipodi:type="inkscape:persp3d" />
    <inkscape:perspective
       id="perspective4194"
       inkscape:persp3d-origin="0.5 : 0.33333333 : 1"
       inkscape:vp_z="1 : 0.5 : 1"
       inkscape:vp_y="0 : 1000 : 0"
       inkscape:vp_x="0 : 0.5 : 1"
       sodipodi:type="inkscape:persp3d" />
  </defs>
  <sodipodi:namedview
     pagecolor="#ffffff"
     bordercolor="#666666"
     borderopacity="1"
     objecttolerance="10"
     gridtolerance="10"
     guidetolerance="10"
     inkscape:pageopacity="0"
     inkscape:pageshadow="2"
     inkscape:window-width="1600"
     inkscape:window-height="796"
     id="namedview3141"
     showgrid="false"
     inkscape:zoom="0.76545992"
     inkscape:cx="367.67967"
     inkscape:cy="279.27081"
     inkscape:window-x="0"
     inkscape:window-y="26"
     inkscape:window-maximized="1"
     inkscape:current-layer="svg2837" />
  <path
     style="fill:#0000ff;fill-opacity:1;stroke:none"
     d="m 179.2639,-102.89717 -11.60647,12.927129 0,16.152573 26.10823,-29.079702 -14.50176,0 z m 30.9591,0 -42.56557,47.391016 0,16.152571 57.06731,-63.543587 -14.50174,0 z m 30.93369,0 -73.49926,81.854908 0,16.1525737 85.41052,-95.1122217 0,-2.89526 -11.91126,0 z m 11.91126,21.206579 -85.41052,95.112224 0,16.152568 85.41052,-95.11222 0,-16.152572 z m 0,34.463906 -85.41052,95.086819 0,16.15256 85.41052,-95.086811 0,-16.152568 z m 0,34.438485 -85.41052,95.112224 0,16.15257 85.41052,-95.1122203 0,-16.1525737 z m 0,34.4639 -85.41052,95.11221 0,2.79369 11.98744,0 73.42308,-81.753332 0,-16.152568 z m 0,34.463894 -56.96576,63.442006 14.50176,0 42.464,-47.289436 0,-16.15257 z m 0,34.46389 -26.00666,28.978116 14.50174,0 11.50492,-12.82556 0,-16.152556 z"
     id="rect5334" />
  <path
     style="fill:#ff0000;fill-opacity:1;fill-rule:evenodd;stroke:none"
     d="m 111.22941,-73.139094 12.06363,13.43508 0,16.15257 -26.56539,-29.58765 14.50176,0 z m -30.93369,0 42.99732,47.898967 0,16.1525737 -57.524472,-64.0515407 14.527152,0 z m -30.95909,0 73.95641,82.3628667 0,16.1525683 L 39,-68.491423 l 0,-4.647671 10.33663,0 z M 39,-50.180089 l 84.29304,93.842358 0,16.152568 L 39,-34.027536 39,-50.180089 z m 0,34.438498 84.29304,93.86775 0,8.22867 -7.11119,0 L 39,0.41097078 39,-15.741591 z m 0,34.463889 60.72452,67.632531 -14.47636,0 L 39,34.874866 39,18.722298 z m 0,34.463894 29.790818,33.168637 -14.501758,0 L 39,69.338759 39,53.186192 z"
     id="path55" />
  <g
     id="g2839"
     transform="translate(6.296539,17.439189)">
    <g
       id="g2841">
      <ellipse
         style="fill:#ffffff"
         cx="75"
         cy="-5"
         rx="35"
         ry="35"
         id="ellipse2843"
         sodipodi:cx="75"
         sodipodi:cy="-5"
         sodipodi:rx="35"
         sodipodi:ry="35"
         d="M 110,-5 C 110,14.329966 94.329966,30 75,30 55.670034,30 40,14.329966 40,-5 c 0,-19.329966 15.670034,-35 35,-35 19.329966,0 35,15.670034 35,35 z" />
      <ellipse
         style="fill:none;stroke:#000000;stroke-width:2"
         cx="75"
         cy="-5"
         rx="35"
         ry="35"
         id="ellipse2845"
         sodipodi:cx="75"
         sodipodi:cy="-5"
         sodipodi:rx="35"
         sodipodi:ry="35"
         d="M 110,-5 C 110,14.329966 94.329966,30 75,30 55.670034,30 40,14.329966 40,-5 c 0,-19.329966 15.670034,-35 35,-35 19.329966,0 35,15.670034 35,35 z" />
    </g>
    <g
       id="g2847">
      <ellipse
         style="fill:#ffffff"
         cx="75"
         cy="-5"
         rx="25"
         ry="25"
         id="ellipse2849"
         sodipodi:cx="75"
         sodipodi:cy="-5"
         sodipodi:rx="25"
         sodipodi:ry="25"
         d="M 100,-5 C 100,8.8071187 88.807119,20 75,20 61.192881,20 50,8.8071187 50,-5 c 0,-13.807119 11.192881,-25 25,-25 13.807119,0 25,11.192881 25,25 z" />
      <ellipse
         style="fill:none;stroke:#000000;stroke-width:2"
         cx="75"
         cy="-5"
         rx="25"
         ry="25"
         id="ellipse2851"
         sodipodi:cx="75"
         sodipodi:cy="-5"
         sodipodi:rx="25"
         sodipodi:ry="25"
         d="M 100,-5 C 100,8.8071187 88.807119,20 75,20 61.192881,20 50,8.8071187 50,-5 c 0,-13.807119 11.192881,-25 25,-25 13.807119,0 25,11.192881 25,25 z" />
    </g>
    <text
       style="font-size:12.80000019px;font-style:normal;font-weight:normal;text-anchor:start;fill:#000000;font-family:sanserif"
       x="75"
       y="-5"
       id="text2853">
      <tspan
         x="75"
         y="-5"
         id="tspan2855" />
    </text>
    <text
       style="font-size:12.80000019px;font-style:normal;font-weight:normal;text-anchor:start;fill:#000000;font-family:sanserif"
       x="75"
       y="-5"
       id="text2857">
      <tspan
         x="75"
         y="-5"
         id="tspan2859" />
    </text>
    <text
       style="font-size:12.80000019px;font-style:normal;font-weight:normal;text-anchor:middle;fill:#000000;font-family:sanserif"
       x="75"
       y="-0.57499999"
       id="text2861">
      <tspan
         x="75"
         y="-0.57499999"
         id="tspan2863">0</tspan>
    </text>
  </g>
  <g
     id="g2865"
     transform="translate(6.296539,17.439189)">
    <g
       id="g2867">
      <ellipse
         style="fill:#ffffff"
         cx="205"
         cy="-75"
         rx="25"
         ry="25"
         id="ellipse2869"
         sodipodi:cx="205"
         sodipodi:cy="-75"
         sodipodi:rx="25"
         sodipodi:ry="25"
         d="m 230,-75 c 0,13.807119 -11.19288,25 -25,25 -13.80712,0 -25,-11.192881 -25,-25 0,-13.807119 11.19288,-25 25,-25 13.80712,0 25,11.192881 25,25 z" />
      <ellipse
         style="fill:none;stroke:#000000;stroke-width:2"
         cx="205"
         cy="-75"
         rx="25"
         ry="25"
         id="ellipse2871"
         sodipodi:cx="205"
         sodipodi:cy="-75"
         sodipodi:rx="25"
         sodipodi:ry="25"
         d="m 230,-75 c 0,13.807119 -11.19288,25 -25,25 -13.80712,0 -25,-11.192881 -25,-25 0,-13.807119 11.19288,-25 25,-25 13.80712,0 25,11.192881 25,25 z" />
    </g>
    <text
       style="font-size:12.80000019px;font-style:normal;font-weight:normal;text-anchor:start;fill:#000000;font-family:sanserif"
       x="205"
       y="-75"
       id="text2873">
      <tspan
         x="205"
         y="-75"
         id="tspan2875" />
    </text>
    <text
       style="font-size:12.80000019px;font-style:normal;font-weight:normal;text-anchor:start;fill:#000000;font-family:sanserif"
       x="205"
       y="-75"
       id="text2877">
      <tspan
         x="205"
         y="-75"
         id="tspan2879" />
    </text>
    <text
       style="font-size:12.80000019px;font-style:normal;font-weight:normal;text-anchor:middle;fill:#000000;font-family:sanserif"
       x="205"
       y="-70.574997"
       id="text2881">
      <tspan
         x="205"
         y="-70.574997"
         id="tspan2883">1</tspan>
    </text>
  </g>
  <g
     id="g2885"
     transform="translate(6.296539,17.439189)">
    <g
       id="g2887">
      <ellipse
         style="fill:#ffffff"
         cx="205"
         cy="45"
         rx="25"
         ry="25"
         id="ellipse2889"
         sodipodi:cx="205"
         sodipodi:cy="45"
         sodipodi:rx="25"
         sodipodi:ry="25"
         d="m 230,45 c 0,13.807119 -11.19288,25 -25,25 -13.80712,0 -25,-11.192881 -25,-25 0,-13.807119 11.19288,-25 25,-25 13.80712,0 25,11.192881 25,25 z" />
      <ellipse
         style="fill:none;stroke:#000000;stroke-width:2"
         cx="205"
         cy="45"
         rx="25"
         ry="25"
         id="ellipse2891"
         sodipodi:cx="205"
         sodipodi:cy="45"
         sodipodi:rx="25"
         sodipodi:ry="25"
         d="m 230,45 c 0,13.807119 -11.19288,25 -25,25 -13.80712,0 -25,-11.192881 -25,-25 0,-13.807119 11.19288,-25 25,-25 13.80712,0 25,11.192881 25,25 z" />
    </g>
    <text
       style="font-size:12.80000019px;font-style:normal;font-weight:normal;text-anchor:start;fill:#000000;font-family:sanserif"
       x="205"
       y="45"
       id="text2893">
      <tspan
         x="205"
         y="45"
         id="tspan2895" />
    </text>
    <text
       style="font-size:12.80000019px;font-style:normal;font-weight:normal;text-anchor:start;fill:#000000;font-family:sanserif"
       x="205"
       y="45"
       id="text2897">
      <tspan
         x="205"
         y="45"
         id="tspan2899" />
    </text>
    <text
       style="font-size:12.80000019px;font-style:normal;font-weight:normal;text-anchor:middle;fill:#000000;font-family:sanserif"
       x="205"
       y="49.424999"
       id="text2901">
      <tspan
         x="205"
         y="49.424999"
         id="tspan2903">2</tspan>
    </text>
  </g>
  <g
     id="g2905"
     transform="translate(6.296539,17.439189)">
    <g
       id="g2907">
      <ellipse
         style="fill:#ffffff"
         cx="325"
         cy="45"
         rx="25"
         ry="25"
         id="ellipse2909"
         sodipodi:cx="325"
         sodipodi:cy="45"
         sodipodi:rx="25"
         sodipodi:ry="25"
         d="m 350,45 c 0,13.807119 -11.19288,25 -25,25 -13.80712,0 -25,-11.192881 -25,-25 0,-13.807119 11.19288,-25 25,-25 13.80712,0 25,11.192881 25,25 z" />
      <ellipse
         style="fill:none;stroke:#000000;stroke-width:2"
         cx="325"
         cy="45"
         rx="25"
         ry="25"
         id="ellipse2911"
         sodipodi:cx="325"
         sodipodi:cy="45"
         sodipodi:rx="25"
         sodipodi:ry="25"
         d="m 350,45 c 0,13.807119 -11.19288,25 -25,25 -13.80712,0 -25,-11.192881 -25,-25 0,-13.807119 11.19288,-25 25,-25 13.80712,0 25,11.192881 25,25 z" />
    </g>
    <text
       style="font-size:12.80000019px;font-style:normal;font-weight:normal;text-anchor:start;fill:#000000;font-family:sanserif"
       x="325"
       y="45"
       id="text2913">
      <tspan
         x="325"
         y="45"
         id="tspan2915" />
    </text>
    <text
       style="font-size:12.80000019px;font-style:normal;font-weight:normal;text-anchor:start;fill:#000000;font-family:sanserif"
       x="325"
       y="45"
       id="text2917">
      <tspan
         x="325"
         y="45"
         id="tspan2919" />
    </text>
    <text
       style="font-size:12.80000019px;font-style:normal;font-weight:normal;text-anchor:middle;fill:#000000;font-family:sanserif"
       x="325"
       y="49.424999"
       id="text2921">
      <tspan
         x="325"
         y="49.424999"
         id="tspan2923">3</tspan>
    </text>
  </g>
  <g
     id="g2925"
     transform="translate(6.296539,17.439189)">
    <g
       id="g2927">
      <ellipse
         style="fill:#ffffff"
         cx="325"
         cy="-75"
         rx="25"
         ry="25"
         id="ellipse2929"
         sodipodi:cx="325"
         sodipodi:cy="-75"
         sodipodi:rx="25"
         sodipodi:ry="25"
         d="m 350,-75 c 0,13.807119 -11.19288,25 -25,25 -13.80712,0 -25,-11.192881 -25,-25 0,-13.807119 11.19288,-25 25,-25 13.80712,0 25,11.192881 25,25 z" />
      <ellipse
         style="fill:none;stroke:#000000;stroke-width:2"
         cx="325"
         cy="-75"
         rx="25"
         ry="25"
         id="ellipse2931"
         sodipodi:cx="325"
         sodipodi:cy="-75"
         sodipodi:rx="25"
         sodipodi:ry="25"
         d="m 350,-75 c 0,13.807119 -11.19288,25 -25,25 -13.80712,0 -25,-11.192881 -25,-25 0,-13.807119 11.19288,-25 25,-25 13.80712,0 25,11.192881 25,25 z" />
    </g>
    <text
       style="font-size:12.80000019px;font-style:normal;font-weight:normal;text-anchor:start;fill:#000000;font-family:sanserif"
       x="325"
       y="-75"
       id="text2933">
      <tspan
         x="325"
         y="-75"
         id="tspan2935" />
    </text>
    <text
       style="font-size:12.80000019px;font-style:normal;font-weight:normal;text-anchor:start;fill:#000000;font-family:sanserif"
       x="325"
       y="-75"
       id="text2937">
      <tspan
         x="325"
         y="-75"
         id="tspan2939" />
    </text>
    <text
       style="font-size:12.80000019px;font-style:normal;font-weight:normal;text-anchor:middle;fill:#000000;font-family:sanserif"
       x="325"
       y="-70.574997"
       id="text2941">
      <tspan
         x="325"
         y="-70.574997"
         id="tspan2943">4</tspan>
    </text>
  </g>
  <g
     id="g2945"
     transform="translate(6.296539,17.439189)">
    <g
       id="g2947">
      <ellipse
         style="fill:#ffffff"
         cx="445"
         cy="-75"
         rx="25"
         ry="25"
         id="ellipse2949"
         sodipodi:cx="445"
         sodipodi:cy="-75"
         sodipodi:rx="25"
         sodipodi:ry="25"
         d="m 470,-75 c 0,13.807119 -11.19288,25 -25,25 -13.80712,0 -25,-11.192881 -25,-25 0,-13.807119 11.19288,-25 25,-25 13.80712,0 25,11.192881 25,25 z" />
      <ellipse
         style="fill:none;stroke:#000000;stroke-width:2"
         cx="445"
         cy="-75"
         rx="25"
         ry="25"
         id="ellipse2951"
         sodipodi:cx="445"
         sodipodi:cy="-75"
         sodipodi:rx="25"
         sodipodi:ry="25"
         d="m 470,-75 c 0,13.807119 -11.19288,25 -25,25 -13.80712,0 -25,-11.192881 -25,-25 0,-13.807119 11.19288,-25 25,-25 13.80712,0 25,11.192881 25,25 z" />
    </g>
    <text
       style="font-size:12.80000019px;font-style:normal;font-weight:normal;text-anchor:start;fill:#000000;font-family:sanserif"
       x="445"
       y="-75"
       id="text2953">
      <tspan
         x="445"
         y="-75"
         id="tspan2955" />
    </text>
    <text
       style="font-size:12.80000019px;font-style:normal;font-weight:normal;text-anchor:start;fill:#000000;font-family:sanserif"
       x="445"
       y="-75"
       id="text2957">
      <tspan
         x="445"
         y="-75"
         id="tspan2959" />
    </text>
    <text
       style="font-size:12.80000019px;font-style:normal;font-weight:normal;text-anchor:middle;fill:#000000;font-family:sanserif"
       x="445"
       y="-70.574997"
       id="text2961">
      <tspan
         x="445"
         y="-70.574997"
         id="tspan2963">5</tspan>
    </text>
  </g>
  <g
     id="g2965"
     transform="translate(6.296539,17.439189)">
    <g
       id="g2967">
      <ellipse
         style="fill:#ffffff"
         cx="565"
         cy="-75"
         rx="25"
         ry="25"
         id="ellipse2969"
         sodipodi:cx="565"
         sodipodi:cy="-75"
         sodipodi:rx="25"
         sodipodi:ry="25"
         d="m 590,-75 c 0,13.807119 -11.19288,25 -25,25 -13.80712,0 -25,-11.192881 -25,-25 0,-13.807119 11.19288,-25 25,-25 13.80712,0 25,11.192881 25,25 z" />
      <ellipse
         style="fill:none;stroke:#000000;stroke-width:2"
         cx="565"
         cy="-75"
         rx="25"
         ry="25"
         id="ellipse2971"
         sodipodi:cx="565"
         sodipodi:cy="-75"
         sodipodi:rx="25"
         sodipodi:ry="25"
         d="m 590,-75 c 0,13.807119 -11.19288,25 -25,25 -13.80712,0 -25,-11.192881 -25,-25 0,-13.807119 11.19288,-25 25,-25 13.80712,0 25,11.192881 25,25 z" />
    </g>
    <text
       style="font-size:12.80000019px;font-style:normal;font-weight:normal;text-anchor:start;fill:#000000;font-family:sanserif"
       x="565"
       y="-75"
       id="text2973">
      <tspan
         x="565"
         y="-75"
         id="tspan2975" />
    </text>
    <text
       style="font-size:12.80000019px;font-style:normal;font-weight:normal;text-anchor:start;fill:#000000;font-family:sanserif"
       x="565"
       y="-75"
       id="text2977">
      <tspan
         x="565"
         y="-75"
         id="tspan2979" />
    </text>
    <text
       style="font-size:12.80000019px;font-style:normal;font-weight:normal;text-anchor:middle;fill:#000000;font-family:sanserif"
       x="565"
       y="-70.574997"
       id="text2981">
      <tspan
         x="565"
         y="-70.574997"
         id="tspan2983">9</tspan>
    </text>
  </g>
  <g
     id="g2985"
     transform="translate(6.296539,17.439189)">
    <g
       id="g2987">
      <ellipse
         style="fill:#ffffff"
         cx="565"
         cy="5"
         rx="25"
         ry="25"
         id="ellipse2989"
         sodipodi:cx="565"
         sodipodi:cy="5"
         sodipodi:rx="25"
         sodipodi:ry="25"
         d="m 590,5 c 0,13.807119 -11.19288,25 -25,25 -13.80712,0 -25,-11.192881 -25,-25 0,-13.8071187 11.19288,-25 25,-25 13.80712,0 25,11.1928813 25,25 z" />
      <ellipse
         style="fill:none;stroke:#000000;stroke-width:2"
         cx="565"
         cy="5"
         rx="25"
         ry="25"
         id="ellipse2991"
         sodipodi:cx="565"
         sodipodi:cy="5"
         sodipodi:rx="25"
         sodipodi:ry="25"
         d="m 590,5 c 0,13.807119 -11.19288,25 -25,25 -13.80712,0 -25,-11.192881 -25,-25 0,-13.8071187 11.19288,-25 25,-25 13.80712,0 25,11.1928813 25,25 z" />
    </g>
    <text
       style="font-size:12.80000019px;font-style:normal;font-weight:normal;text-anchor:start;fill:#000000;font-family:sanserif"
       x="565"
       y="5"
       id="text2993">
      <tspan
         x="565"
         y="5"
         id="tspan2995" />
    </text>
    <text
       style="font-size:12.80000019px;font-style:normal;font-weight:normal;text-anchor:start;fill:#000000;font-family:sanserif"
       x="565"
       y="5"
       id="text2997">
      <tspan
         x="565"
         y="5"
         id="tspan2999" />
    </text>
    <text
       style="font-size:12.80000019px;font-style:normal;font-weight:normal;text-anchor:middle;fill:#000000;font-family:sanserif"
       x="565"
       y="9.4250002"
       id="text3001">
      <tspan
         x="565"
         y="9.4250002"
         id="tspan3003">8</tspan>
    </text>
  </g>
  <g
     id="g3005"
     transform="translate(6.296539,17.439189)">
    <line
       style="fill:none;stroke:#000000;stroke-width:2"
       x1="108.595"
       y1="7.9211402"
       x2="176.562"
       y2="34.062302"
       id="line3007" />
    <polyline
       style="fill:none;stroke:#000000;stroke-width:2"
       points="167.521,35.942 178.649,34.865 171.11,26.6085 "
       id="polyline3009" />
  </g>
  <text
     style="font-size:12.80000019px;font-style:normal;font-weight:normal;text-anchor:middle;fill:#000000;font-family:sanserif"
     x="150.96254"
     y="36.18359"
     id="text3011">
    <tspan
       x="150.96254"
       y="36.18359"
       id="tspan3013">z</tspan>
  </text>
  <g
     id="g3015"
     transform="translate(6.296539,17.439189)">
    <line
       style="fill:none;stroke:#000000;stroke-width:2"
       x1="230.89799"
       y1="45"
       x2="294.629"
       y2="45"
       id="line3017" />
    <polyline
       style="fill:none;stroke:#000000;stroke-width:2"
       points="286.865,50 296.865,45 286.865,40 "
       id="polyline3019" />
  </g>
  <text
     style="font-size:12.80000019px;font-style:normal;font-weight:normal;text-anchor:middle;fill:#000000;font-family:sanserif"
     x="271.29654"
     y="59.389191"
     id="text3021">
    <tspan
       x="271.29654"
       y="59.389191"
       id="tspan3023">y</tspan>
  </text>
  <g
     id="g3025"
     transform="translate(6.296539,17.439189)">
    <line
       style="fill:none;stroke:#000000;stroke-width:2"
       x1="349.63901"
       y1="53.212898"
       x2="406.40701"
       y2="72.135597"
       id="line3027" />
    <polyline
       style="fill:none;stroke:#000000;stroke-width:2"
       points="397.46,74.4238 408.528,72.8427 400.622,64.937 "
       id="polyline3029" />
  </g>
  <text
     style="font-size:12.80000019px;font-style:normal;font-weight:normal;text-anchor:middle;fill:#000000;font-family:sanserif"
     x="386.44055"
     y="77.770592"
     id="text3031">
    <tspan
       x="386.44055"
       y="77.770592"
       id="tspan3033">y</tspan>
  </text>
  <g
     id="g3035"
     transform="translate(6.296539,17.439189)">
    <line
       style="fill:none;stroke:#000000;stroke-width:2"
       x1="350.89801"
       y1="-75"
       x2="414.629"
       y2="-75"
       id="line3037" />
    <polyline
       style="fill:none;stroke:#000000;stroke-width:2"
       points="406.865,-70 416.865,-75 406.865,-80 "
       id="polyline3039" />
  </g>
  <text
     style="font-size:12.80000019px;font-style:normal;font-weight:normal;text-anchor:middle;fill:#000000;font-family:sanserif"
     x="391.29654"
     y="-60.610813"
     id="text3041">
    <tspan
       x="391.29654"
       y="-60.610813"
       id="tspan3043">y</tspan>
  </text>
  <g
     id="g3045"
     transform="translate(6.296539,17.439189)">
    <line
       style="fill:none;stroke:#000000;stroke-width:2"
       x1="470.89801"
       y1="-75"
       x2="534.62903"
       y2="-75"
       id="line3047" />
    <polyline
       style="fill:none;stroke:#000000;stroke-width:2"
       points="526.865,-70 536.865,-75 526.865,-80 "
       id="polyline3049" />
  </g>
  <text
     style="font-size:12.80000019px;font-style:normal;font-weight:normal;text-anchor:middle;fill:#000000;font-family:sanserif"
     x="511.29654"
     y="-60.610813"
     id="text3051">
    <tspan
       x="511.29654"
       y="-60.610813"
       id="tspan3053">z</tspan>
  </text>
  <g
     id="g3055"
     transform="translate(6.296539,17.439189)">
    <line
       style="fill:none;stroke:#000000;stroke-width:2"
       x1="230.89799"
       y1="-75"
       x2="294.629"
       y2="-75"
       id="line3057" />
    <polyline
       style="fill:none;stroke:#000000;stroke-width:2"
       points="286.865,-70 296.865,-75 286.865,-80 "
       id="polyline3059" />
  </g>
  <text
     style="font-size:12.80000019px;font-style:normal;font-weight:normal;text-anchor:middle;fill:#000000;font-family:sanserif"
     x="271.29654"
     y="-60.610813"
     id="text3061">
    <tspan
       x="271.29654"
       y="-60.610813"
       id="tspan3063">z</tspan>
  </text>
  <g
     id="g3065"
     transform="translate(6.296539,17.439189)">
    <line
       style="fill:none;stroke:#000000;stroke-width:2"
       x1="349.63901"
       y1="36.787102"
       x2="416.11899"
       y2="14.6271"
       id="line3067" />
    <polyline
       style="fill:none;stroke:#000000;stroke-width:2"
       points="410.334,21.8257 418.24,13.92 407.172,12.3389 "
       id="polyline3069" />
  </g>
  <text
     style="font-size:12.80000019px;font-style:normal;font-weight:normal;text-anchor:middle;fill:#000000;font-family:sanserif"
     x="391.29654"
     y="39.389191"
     id="text3071">
    <tspan
       x="391.29654"
       y="39.389191"
       id="tspan3073">z</tspan>
  </text>
  <g
     id="g3075"
     transform="translate(6.296539,17.439189)">
    <line
       style="fill:none;stroke:#000000;stroke-width:2"
       x1="106.691"
       y1="-22.064199"
       x2="178.17101"
       y2="-60.553699"
       id="line3077" />
    <polyline
       style="fill:none;stroke:#000000;stroke-width:2"
       points="173.706,-52.4705 180.14,-61.6138 168.965,-61.2752 "
       id="polyline3079" />
  </g>
  <text
     style="font-size:12.80000019px;font-style:normal;font-weight:normal;text-anchor:middle;fill:#000000;font-family:sanserif"
     x="150.69653"
     y="-27.979811"
     id="text3081">
    <tspan
       x="150.69653"
       y="-27.979811"
       id="tspan3083">y</tspan>
  </text>
  <g
     id="g3085"
     transform="translate(6.296539,17.439189)">
    <g
       id="g3087">
      <ellipse
         style="fill:#ffffff"
         cx="445"
         cy="5"
         rx="25"
         ry="25"
         id="ellipse3089"
         sodipodi:cx="445"
         sodipodi:cy="5"
         sodipodi:rx="25"
         sodipodi:ry="25"
         d="m 470,5 c 0,13.807119 -11.19288,25 -25,25 -13.80712,0 -25,-11.192881 -25,-25 0,-13.8071187 11.19288,-25 25,-25 13.80712,0 25,11.1928813 25,25 z" />
      <ellipse
         style="fill:none;stroke:#000000;stroke-width:2"
         cx="445"
         cy="5"
         rx="25"
         ry="25"
         id="ellipse3091"
         sodipodi:cx="445"
         sodipodi:cy="5"
         sodipodi:rx="25"
         sodipodi:ry="25"
         d="m 470,5 c 0,13.807119 -11.19288,25 -25,25 -13.80712,0 -25,-11.192881 -25,-25 0,-13.8071187 11.19288,-25 25,-25 13.80712,0 25,11.1928813 25,25 z" />
    </g>
    <text
       style="font-size:12.80000019px;font-style:normal;font-weight:normal;text-anchor:start;fill:#000000;font-family:sanserif"
       x="445"
       y="5"
       id="text3093">
      <tspan
         x="445"
         y="5"
         id="tspan3095" />
    </text>
    <text
       style="font-size:12.80000019px;font-style:normal;font-weight:normal;text-anchor:start;fill:#000000;font-family:sanserif"
       x="445"
       y="5"
       id="text3097">
      <tspan
         x="445"
         y="5"
         id="tspan3099" />
    </text>
    <text
       style="font-size:12.80000019px;font-style:normal;font-weight:normal;text-anchor:middle;fill:#000000;font-family:sanserif"
       x="445"
       y="9.4250002"
       id="text3101">
      <tspan
         x="445"
         y="9.4250002"
         id="tspan3103">6</tspan>
    </text>
  </g>
  <text
     style="font-size:12.80000019px;font-style:normal;font-weight:normal;text-anchor:start;fill:#000000;font-family:sanserif"
     x="451.29654"
     y="102.43919"
     id="text3105">
    <tspan
       x="451.29654"
       y="102.43919"
       id="tspan3107" />
  </text>
  <text
     style="font-size:12.80000019px;font-style:normal;font-weight:normal;text-anchor:start;fill:#000000;font-family:sanserif"
     x="451.29654"
     y="102.43919"
     id="text3109">
    <tspan
       x="451.29654"
       y="102.43919"
       id="tspan3111" />
  </text>
  <g
     id="g3113"
     transform="translate(6.296539,17.439189)">
    <line
       style="fill:none;stroke:#000000;stroke-width:2"
       x1="470.89801"
       y1="5"
       x2="534.62903"
       y2="5"
       id="line3115" />
    <polyline
       style="fill:none;stroke:#000000;stroke-width:2"
       points="526.865,10 536.865,5 526.865,0 "
       id="polyline3117" />
  </g>
  <text
     style="font-size:12.80000019px;font-style:normal;font-weight:normal;text-anchor:middle;fill:#000000;font-family:sanserif"
     x="511.29654"
     y="19.389189"
     id="text3119">
    <tspan
       x="511.29654"
       y="19.389189"
       id="tspan3121">y</tspan>
  </text>
  <g
     id="g3123"
     transform="translate(6.296539,17.439189)">
    <g
       id="g3125">
      <polygon
         style="fill:#ffffff"
         points="469.502,89.9374 490,70 460,70 450,40 435.002,63.4374 400,50 420,90 400,110 430,110 450,130 460,110 490,120 "
         id="polygon3127" />
      <polygon
         style="fill:none;stroke:#000000;stroke-width:2"
         points="469.502,89.9374 490,70 460,70 450,40 435.002,63.4374 400,50 420,90 400,110 430,110 450,130 460,110 490,120 "
         id="polygon3129" />
    </g>
    <g
       id="g3131">
      <ellipse
         style="fill:#ffffff"
         cx="445"
         cy="85"
         rx="15"
         ry="15"
         id="ellipse3133"
         sodipodi:cx="445"
         sodipodi:cy="85"
         sodipodi:rx="15"
         sodipodi:ry="15"
         d="m 460,85 c 0,8.284271 -6.71573,15 -15,15 -8.28427,0 -15,-6.715729 -15,-15 0,-8.284271 6.71573,-15 15,-15 8.28427,0 15,6.715729 15,15 z" />
      <ellipse
         style="fill:none;stroke:#000000;stroke-width:2"
         cx="445"
         cy="85"
         rx="15"
         ry="15"
         id="ellipse3135"
         sodipodi:cx="445"
         sodipodi:cy="85"
         sodipodi:rx="15"
         sodipodi:ry="15"
         d="m 460,85 c 0,8.284271 -6.71573,15 -15,15 -8.28427,0 -15,-6.715729 -15,-15 0,-8.284271 6.71573,-15 15,-15 8.28427,0 15,6.715729 15,15 z" />
    </g>
    <text
       style="font-size:12.80000019px;font-style:normal;font-weight:normal;text-anchor:middle;fill:#000000;font-family:sanserif"
       x="445"
       y="89.425003"
       id="text3137">
      <tspan
         x="445"
         y="89.425003"
         id="tspan3139">7</tspan>
    </text>
  </g>
  <g
     id="g4081"
     transform="matrix(0.99492667,0,0,0.99492667,97.053553,80.582036)">
    <path
       id="path55-7"
       d="m 281.23833,109.41861 0,11.76106 6.92033,7.68925 14.57462,0 -17.47557,-19.45031 -4.01938,0 z m 20.55127,0 17.47556,19.45031 3.77473,0 0,-12.00572 -6.67567,-7.44459 -14.57462,0 z"
       style="fill:#ff0000;fill-opacity:1;fill-rule:evenodd;stroke:none" />
    <rect
       y="109.60332"
       x="281.2464"
       height="19.452343"
       width="41.786514"
       id="rect2993"
       style="fill:none;stroke:#000000;stroke-width:1.99976385;stroke-miterlimit:4;stroke-opacity:1;stroke-dasharray:none" />
  </g>
  <g
     id="g3923"
     transform="matrix(0.99492667,0,0,0.99492667,97.053553,79.86525)">
    <path
       id="rect5334-6"
       transform="matrix(0.55921809,0,0,0.55921809,19,-164.51764)"
       d="m 468.9375,544.28125 0,22.125 19.84375,-22.125 -19.84375,0 z m 49.4375,0 -31.25,34.8125 26.0625,0 30.5,-33.96875 0,-0.84375 -25.3125,0 z m 25.3125,33.75 -0.96875,1.0625 0.96875,0 0,-1.0625 z"
       style="fill:#0000ff;fill-opacity:1;stroke:none" />
    <rect
       transform="scale(-1,1)"
       y="139.86252"
       x="-323.0329"
       height="19.452343"
       width="41.786514"
       id="rect2993-3"
       style="fill:none;stroke:#000000;stroke-width:1.99976385;stroke-miterlimit:4;stroke-opacity:1;stroke-dasharray:none" />
  </g>
  <g
     id="g4045"
     transform="matrix(0.99492667,0,0,0.99492667,92.602505,80.582036)"
     style="stroke-width:2.23687243;stroke-miterlimit:4;stroke-dasharray:none">
    <text
       id="text3632-9"
       y="124.10137"
       x="353.06088"
       style="font-size:12.80000019px;font-style:normal;font-weight:normal;text-anchor:middle;fill:#000000;stroke-width:2.23687243;stroke-miterlimit:4;stroke-dasharray:none;font-family:sanserif">
      <tspan
         id="tspan3634-2"
         y="124.10137"
         x="353.06088"
         style="stroke-width:2.23687243;stroke-miterlimit:4;stroke-dasharray:none">Red</tspan>
    </text>
    <text
       id="text3632-9-5"
       y="124.10137"
       x="388.54764"
       style="font-size:12.80000019px;font-style:normal;font-weight:normal;text-anchor:middle;fill:#000000;stroke-width:2.23687243;stroke-miterlimit:4;stroke-dasharray:none;font-family:sanserif">
      <tspan
         id="tspan3634-2-4"
         y="124.10137"
         x="388.54764"
         style="stroke-width:2.23687243;stroke-miterlimit:4;stroke-dasharray:none">Zone</tspan>
    </text>
  </g>
  <g
     id="g4051"
     transform="matrix(0.99492667,0,0,0.99492667,97.061032,80.582036)"
     style="stroke-width:2.23687243;stroke-miterlimit:4;stroke-dasharray:none">
    <text
       id="text3632-9-9"
       y="153.64012"
       x="350.57962"
       style="font-size:12.80000019px;font-style:normal;font-weight:normal;text-anchor:middle;fill:#000000;stroke-width:2.23687243;stroke-miterlimit:4;stroke-dasharray:none;font-family:sanserif">
      <tspan
         id="tspan3634-2-48"
         y="153.64012"
         x="350.57962"
         style="stroke-width:2.23687243;stroke-miterlimit:4;stroke-dasharray:none">Blue</tspan>
    </text>
    <text
       id="text3632-9-5-7"
       y="153.64012"
       x="389.57251"
       style="font-size:12.80000019px;font-style:normal;font-weight:normal;text-anchor:middle;fill:#000000;stroke-width:2.23687243;stroke-miterlimit:4;stroke-dasharray:none;font-family:sanserif">
      <tspan
         id="tspan3634-2-4-2"
         y="153.64012"
         x="389.57251"
         style="stroke-width:2.23687243;stroke-miterlimit:4;stroke-dasharray:none">Zone</tspan>
    </text>
  </g>
  <rect
     style="fill:none;stroke:#000000;stroke-width:1.98961842;stroke-miterlimit:4;stroke-opacity:1;stroke-dasharray:none"
     id="rect2993-8"
     width="202.85497"
     height="68.812996"
     x="356.08578"
     y="179.59407" />
</svg>
